<svg width="36" height="36" viewBox="0 0 36 36" fill="none" xmlns="http://www.w3.org/2000/svg">
<path d="M7.66946 33H29.0923V28.814L7.66946 29.0756C7.44631 29.4244 7 30.3314 7 31.1686C7 32.0058 7.44631 32.7384 7.66946 33Z" fill="white"/>
<path d="M30 33H8.63472C8.04059 33 7.45603 32.7393 7.23452 32.188C7.1021 31.8585 7 31.4641 7 31.0452C7 30.6235 7.10349 30.1852 7.23721 29.8007C7.46099 29.1573 8.10888 28.806 8.79005 28.7975L30 28.5319" stroke="#0F4B8F"/>
<path d="M7 5C7 3.89543 7.89543 3 9 3H30V29.1702H7V5Z" fill="#0F4B8F"/>
<rect x="13.2726" y="8.74469" width="11.1515" height="5.74468" fill="white"/>
<path d="M13.6212 18.9575H24.0758" stroke="white"/>
<path d="M14.6666 22.1489H23.0303" stroke="white"/>
</svg>
