<svg width="28" height="28" viewBox="0 0 28 28" fill="none" xmlns="http://www.w3.org/2000/svg">
<path d="M4 23V5C4 3.89543 4.89543 3 6 3H22.21C23.3145 3 24.21 3.89543 24.21 5V23C24.21 24.1046 23.3145 25 22.21 25H6C4.89543 25 4 24.1046 4 23Z" fill="#0F4B8F" stroke="white" stroke-width="1.5"/>
<path d="M10.7366 9.5L14.5862 9.5" stroke="white"/>
<path d="M7.84955 14.5H14.5862" stroke="white"/>
<path d="M8.81189 19.5L14.5862 19.5" stroke="white"/>
<path d="M17.4733 9.5L18.9169 10.5L21.3228 8" stroke="white"/>
<path d="M17.4733 14L18.9169 15L21.3228 12.5" stroke="white"/>
<path d="M17.4733 19L18.9169 20L21.3228 17.5" stroke="white"/>
</svg>
